<?xml version="1.0" encoding="UTF-8" standalone="no"?>
<!-- Created with Inkscape (http://www.inkscape.org/) -->

<svg
   width="210mm"
   height="297mm"
   viewBox="0 0 210 297"
   version="1.1"
   id="svg5"
   inkscape:version="1.1.2 (0a00cf5339, 2022-02-04)"
   sodipodi:docname="practicaink.svg"
   xmlns:inkscape="http://www.inkscape.org/namespaces/inkscape"
   xmlns:sodipodi="http://sodipodi.sourceforge.net/DTD/sodipodi-0.dtd"
   xmlns="http://www.w3.org/2000/svg"
   xmlns:svg="http://www.w3.org/2000/svg">
  <sodipodi:namedview
     id="namedview7"
     pagecolor="#ffffff"
     bordercolor="#666666"
     borderopacity="1.0"
     inkscape:pageshadow="2"
     inkscape:pageopacity="0.0"
     inkscape:pagecheckerboard="0"
     inkscape:document-units="mm"
     showgrid="false"
     inkscape:zoom="0.98520768"
     inkscape:cx="456.24898"
     inkscape:cy="645.04166"
     inkscape:window-width="1104"
     inkscape:window-height="1016"
     inkscape:window-x="26"
     inkscape:window-y="23"
     inkscape:window-maximized="0"
     inkscape:current-layer="layer1" />
  <defs
     id="defs2" />
  <g
     inkscape:label="Capa 1"
     inkscape:groupmode="layer"
     id="layer1">
    <rect
       style="fill:#ff0000;stroke-width:0.264583"
       id="rect55"
       width="29.420792"
       height="25.96851"
       x="37.065655"
       y="155.28735" />
    <rect
       style="fill:none;stroke-width:7.565;stroke:#000000;stroke-opacity:1;stroke-miterlimit:4;stroke-dasharray:none;stroke-linejoin:bevel;stroke-linecap:round;paint-order:markers stroke fill"
       id="rect79"
       width="43.62038"
       height="49.220715"
       x="11.228993"
       y="-176.10793"
       transform="rotate(150.49744)"
       inkscape:transform-center-x="30.59676"
       inkscape:transform-center-y="-29.196478"
       ry="21.81019" />
    <rect
       style="fill:#ff00ff;stroke-width:0.264583"
       id="rect281"
       width="23.725344"
       height="95.212921"
       x="81.522484"
       y="74.166916" />
    <path
       style="fill:none;stroke:#000000;stroke-width:0.264583px;stroke-linecap:butt;stroke-linejoin:miter;stroke-opacity:1"
       d="M 27.551485,77.286878 C 49.860014,38.497306 41.793812,28.693839 41.793812,28.693839 c 19.68985,5.86484 29.277691,20.006709 37.687272,34.993102 6.230007,-9.599275 6.537903,-21.42189 1.271426,-35.337291 30.56029,15.141543 27.27871,37.186484 33.29738,57.334267"
       id="path857"
       sodipodi:nodetypes="ccccc" />
    <path
       style="fill:none;stroke:#000000;stroke-width:0.264583px;stroke-linecap:butt;stroke-linejoin:miter;stroke-opacity:1"
       d="M 37.239235,266.63861 C 5.8975404,230.14184 39.888984,212.43945 76.435,213.09687 c 36.54602,0.65743 72.89606,18.93734 40.77046,52.93052 -35.00734,1.87544 -29.860593,13.41965 -39.140443,14.98633 -10.38832,-5.66685 -6.884068,-15.10918 -40.825782,-14.37511 z"
       id="path1757"
       sodipodi:nodetypes="csccc" />
    <path
       style="fill:#000000;stroke:#5f0000;stroke-width:2.065;stroke-linecap:butt;stroke-linejoin:miter;stroke-miterlimit:4;stroke-dasharray:none;stroke-opacity:1"
       d="m 156.8644,22.157204 c -12.66254,9.318179 -26.45138,18.449252 -25.05315,30.103234 7.3342,14.223811 22.82256,5.79824 23.03549,5.128723 1.28267,11.483752 -6.21989,13.584361 -6.21989,13.584361 l 18.9371,-0.05786 c 0,0 -6.61296,1.307337 -6.42537,-13.287646 0.2161,-0.335491 15.86085,10.540091 22.67942,-4.332042 0.67663,-15.703571 -15.67155,-22.025271 -26.9536,-31.13877 z"
       id="path2457"
       sodipodi:nodetypes="ccccccccc" />
    <path
       style="fill:none;stroke:#000000;stroke-width:0.264583px;stroke-linecap:butt;stroke-linejoin:miter;stroke-opacity:1"
       d="M 27.551485,77.286878 C 24.513812,79.333065 14.06335,78.953429 7.0722056,79.705849 15.846355,80.169476 24.55169,81.513187 31.369468,79.653182 46.555455,53.074441 44.980604,49.408981 48.843023,38.310377 c 8.145913,-1.521704 20.252502,13.40567 29.241274,31.722555 10.713017,-7.440037 13.604336,-17.364458 11.86861,-29.560243 13.599053,4.657272 17.026823,28.340989 24.096983,45.211228"
       id="path6019"
       sodipodi:nodetypes="ccccccc" />
    <path
       style="fill:#000000;stroke:#5f0000;stroke-width:5.60163;stroke-linecap:round;stroke-linejoin:bevel;stroke-miterlimit:4;stroke-dasharray:none;stroke-opacity:1;paint-order:markers stroke fill"
       d="m 74.284391,303.60489 c -0.789496,-0.1446 -8.217935,-0.66122 -16.507643,-1.14803 -8.891009,-0.52214 -14.336339,-1.09908 -13.277886,-1.40682 0.98687,-0.28693 9.06126,-0.88892 17.943089,-1.33776 16.388176,-0.82817 29.67248,-2.24861 34.372335,-3.6753 7.700114,-2.33745 7.469324,-2.09392 15.224304,-16.06487 15.47677,-27.88212 30.38143,-59.84153 38.52065,-82.59813 12.69838,-35.50363 16.76986,-66.27988 10.99043,-83.0765 -0.78099,-2.2698 -1.30717,-4.12691 -1.16925,-4.12691 1.32312,0 16.99498,6.01172 24.07454,9.23498 43.36568,19.74404 75.6066,52.91953 110.52958,113.73355 l 5.28856,9.20934 1.27588,-1.67324 c 2.63225,-3.45203 9.19242,-17.0038 11.61246,-23.98859 10.03465,-28.96233 8.86199,-62.77462 -3.44332,-99.28439 -1.38691,-4.11492 -2.38839,-7.61493 -2.22552,-7.7778 0.37289,-0.37289 12.66708,6.41631 21.41071,11.8236 16.06948,9.93779 35.61093,26.85534 46.24993,40.03979 16.26787,20.16006 27.37117,43.61041 35.44511,74.86065 2.59421,10.04092 13.71604,64.67617 13.37443,65.701 -0.13161,0.39482 -4.8365,-13.13151 -10.45531,-30.05848 -11.43298,-34.44242 -17.54224,-51.18468 -23.41194,-64.15968 -12.89116,-28.49602 -28.34188,-46.72633 -45.82897,-54.07362 -2.70775,-1.13768 -5.01486,-1.96315 -5.1269,-1.83439 -0.11205,0.12876 0.0547,2.01047 0.37053,4.18159 1.21021,8.31907 1.6016,25.45493 0.75409,33.01528 -2.81966,25.15312 -12.41157,44.91084 -29.96568,61.72423 -7.46339,7.14847 -14.74352,12.86262 -15.08791,11.84244 -0.82719,-2.45042 -14.43103,-27.14359 -20.75875,-37.68049 -14.16971,-23.59537 -28.58985,-42.76577 -42.94533,-57.09232 -9.76547,-9.74579 -16.23747,-14.82676 -24.0945,-18.91584 -7.16408,-3.72844 -12.10022,-5.0946 -18.40752,-5.0946 h -5.22797 l -2.48478,8.07439 c -1.36664,4.44091 -4.63829,15.66432 -7.27032,24.94089 -5.2321,18.44045 -8.28021,27.24407 -14.91001,43.06342 -5.50289,13.13042 -21.21582,44.50411 -32.4433,64.7789 l -8.61268,15.55294 -3.58862,0.75533 c -8.45303,1.7792 -12.93412,2.21895 -25.479186,2.50042 -7.302838,0.16386 -13.923838,0.17961 -14.713333,0.035 z"
       id="path7293"
       transform="scale(0.26458333)" />
    <path
       style="fill:#ff0000;stroke:#000000;stroke-width:0.264583px;stroke-linecap:butt;stroke-linejoin:miter;stroke-opacity:1"
       d="m 154.56127,96.836429 c -5.75443,-5.786615 -5.66534,-7.762244 -14.59539,-8.272779 -9.28917,-0.268645 -12.87691,7.164099 -13.03021,13.12777 0.0598,19.57593 15.15518,17.29563 27.43572,29.83908"
       id="path7384"
       sodipodi:nodetypes="cccc" />
    <path
       style="fill:#800000;stroke:#000000;stroke-width:0.264583px;stroke-linecap:butt;stroke-linejoin:miter;stroke-opacity:1"
       d="m 154.56127,96.836429 c 3.87444,-5.663242 5.01178,-7.162193 13.94183,-7.672728 9.28917,-0.268645 13.64691,7.074929 13.80021,13.038599 -0.0598,19.57593 -15.65138,16.78475 -27.93192,29.3282"
       id="path7384-3"
       sodipodi:nodetypes="cccc" />
    <path
       style="fill:none;stroke:#000000;stroke-width:0.264583px;stroke-linecap:butt;stroke-linejoin:miter;stroke-opacity:1"
       d="m 168.52092,190.01169 -13.30296,-34.35103 -14.03204,35.45777 -36.93273,7.20695 36.85196,19.58046 13.81593,31.3434 14.0352,-30.73286 34.22094,-16.50675 z"
       id="path10004"
       sodipodi:nodetypes="ccccccccc" />
    <ellipse
       style="fill:none;stroke:#5f0000;stroke-width:2.065;stroke-linecap:round;stroke-linejoin:bevel;stroke-miterlimit:4;stroke-dasharray:none;stroke-opacity:1;paint-order:markers stroke fill"
       id="path10313"
       cx="149.53055"
       cy="200.79956"
       rx="8.3446407"
       ry="9.6811275" />
  </g>
</svg>
